<svg xmlns="http://www.w3.org/2000/svg" width="125.37" height="29.12"><path d="M19.2 15.68c0 4.7-2.72 6.72-9 6.72H0V0h9.92c5.82 0 8.32 1.83 8.32 6.08a4.55 4.55 0 0 1-2.56 4.48 5.59 5.59 0 0 1 3.52 5.12zM6.4 8.96h2.56c1.79 0 2.56-.77 2.56-2.56 0-1.57-.77-2.24-2.56-2.24H6.4zm6.08 6.72c0-2-1-2.88-3.2-2.88H6.4v5.4h2.88c2.24 0 3.2-.73 3.2-2.52zm16.96 3.52A2.23 2.23 0 0 0 32 17.28h5.44c-.67 3.81-3.07 5.44-8 5.44-6.05 0-8.64-2.5-8.64-8.32s2.59-8.32 8.64-8.32 8.64 2.5 8.64 8.32V16H26.56c0 2.2.86 3.2 2.88 3.2zm-2.88-6.4h5.76c0-2.24-.86-3.2-2.88-3.2s-2.88.96-2.88 3.2zm22.65-1.92c-2.2 0-3.16 1.06-3.16 3.52v8h-5.76v-16h4.48l.76 1.38a4.59 4.59 0 0 1 3.72-1.7h2.56v4.8h-2.6zM65.57 22.4h-6.08v-8.32L51.49 0h7l4 8 4-8h6.72l-7.64 14.08zm23.04-8c0 5.82-2.69 8.32-9 8.32s-9-2.5-9-8.32 2.69-8.32 9-8.32 9 2.5 9 8.32zm-9 4.16c2.24 0 3.2-1.25 3.2-4.16s-1-4.16-3.2-4.16-3.2 1.25-3.2 4.16 1 4.16 3.24 4.16zM96.89 6.05a7.16 7.16 0 0 1 5 1.57l.73-1.22h4.48v14.37c0 5.82-2.59 8.35-8.64 8.35-5 0-7.42-1.63-8-5.44h5.43a2 2 0 0 0 2.24 1.92c2.24 0 3.2-1.18 3.2-3.84v-.22a7.31 7.31 0 0 1-4.44 1.18c-4.93 0-7-2.5-7-8.32s2.08-8.32 7-8.32zm-1.28 8.29c0 2.91.87 4.19 2.88 4.19s2.88-1.28 2.88-4.19-.86-4.14-2.88-4.14-2.88 1.22-2.88 4.14zm21.76-2.14h2.24v-.64c0-1.57-.64-2.24-2.07-2.24s-2.08.58-2.08 1.92h-5.44c0-3.58 2.3-5.12 7.67-5.12s7.68 1.82 7.68 6.08v10.2h-4.48l-.67-1.15c-1 1-2.59 1.47-4.76 1.47-4.26 0-6.09-1.54-6.09-5.12 0-3.81 2.41-5.4 8-5.4zm.64 3.2c-2 0-2.88.45-2.88 1.92 0 1.22.58 1.6 1.92 1.6 1.8 0 2.56-.86 2.56-2.88v-.64z" fill="#ff6a6d"/></svg>